<svg xmlns="http://www.w3.org/2000/svg" viewBox="0 0 1600 900"><defs><linearGradient id="sky" x2="0" y2="1"><stop stop-color="#05080d"/><stop offset="1" stop-color="#13201c"/></linearGradient><radialGradient id="mist"><stop stop-color="#d8bd78" stop-opacity=".18"/><stop offset="1" stop-color="#d8bd78" stop-opacity="0"/></radialGradient></defs><rect width="1600" height="900" fill="url(#sky)"/><circle cx="1260" cy="190" r="180" fill="url(#mist)"/><circle cx="1260" cy="190" r="62" fill="#e7dcae" opacity=".85"/><g fill="#0b1512"><path d="M80 900L130 170 230 900Z"/><path d="M260 900L330 100 430 900Z"/><path d="M480 900L560 220 650 900Z"/><path d="M680 900L760 80 850 900Z"/><path d="M890 900L970 190 1080 900Z"/><path d="M1110 900L1190 120 1300 900Z"/><path d="M1330 900L1410 230 1530 900Z"/></g><g fill="#d4b65e"><circle cx="120" cy="250" r="3"/><circle cx="330" cy="340" r="3"/><circle cx="540" cy="430" r="3"/><circle cx="750" cy="250" r="3"/><circle cx="960" cy="340" r="3"/><circle cx="1170" cy="430" r="3"/><circle cx="1380" cy="250" r="3"/></g><path d="M0 760 Q360 680 720 760 T1600 760V900H0Z" fill="#070b09"/><text x="80" y="820" fill="#bca05a" font-size="28" font-family="Cinzel,serif" letter-spacing="7">THE FORBIDDEN WOOD</text></svg>